<svg width="29" height="29" viewBox="0 0 29 29" fill="none" xmlns="http://www.w3.org/2000/svg">
<path d="M14.4988 0.96875C11.8228 0.96875 9.20689 1.76227 6.98189 3.24897C4.75689 4.73566 3.02272 6.84876 1.99867 9.32104C0.974612 11.7933 0.706673 14.5138 1.22873 17.1383C1.75079 19.7629 3.0394 22.1737 4.9316 24.0659C6.82381 25.9581 9.23462 27.2467 11.8592 27.7688C14.4837 28.2908 17.2042 28.0229 19.6765 26.9988C22.1487 25.9748 24.2618 24.2406 25.7485 22.0156C27.2352 19.7906 28.0288 17.1747 28.0288 14.4987C28.0247 10.9116 26.5979 7.47256 24.0614 4.93608C21.5249 2.39959 18.0859 0.972809 14.4988 0.96875ZM18.3683 15.1725L13.2946 19.6825C12.4494 20.433 11.2092 19.1215 12.0949 18.335L16.411 14.4987L12.0949 10.6625C11.9162 10.5035 11.808 10.2799 11.7942 10.041C11.7803 9.8022 11.8619 9.56762 12.021 9.38892C12.18 9.21022 12.4036 9.10203 12.6425 9.08816C12.8813 9.07429 13.1159 9.15587 13.2946 9.31495L18.3683 13.825C18.4615 13.9107 18.536 14.0149 18.5869 14.1308C18.6378 14.2468 18.664 14.3721 18.664 14.4987C18.664 14.6254 18.6378 14.7507 18.5869 14.8667C18.536 14.9826 18.4615 15.0868 18.3683 15.1725Z" fill="white"/>
</svg>
